<?xml version="1.0" encoding="utf-8" standalone="no"?>
<!DOCTYPE svg PUBLIC "-//W3C//DTD SVG 1.1//EN"
  "http://www.w3.org/Graphics/SVG/1.1/DTD/svg11.dtd">
<svg xmlns:xlink="http://www.w3.org/1999/xlink" width="864pt" height="360pt" viewBox="0 0 864 360" xmlns="http://www.w3.org/2000/svg" version="1.1">
 <metadata>
  <rdf:RDF xmlns:dc="http://purl.org/dc/elements/1.1/" xmlns:cc="http://creativecommons.org/ns#" xmlns:rdf="http://www.w3.org/1999/02/22-rdf-syntax-ns#">
   <cc:Work>
    <dc:type rdf:resource="http://purl.org/dc/dcmitype/StillImage"/>
    <dc:date>2022-09-29T13:45:39.518517</dc:date>
    <dc:format>image/svg+xml</dc:format>
    <dc:creator>
     <cc:Agent>
      <dc:title>Matplotlib v3.5.2, https://matplotlib.org/</dc:title>
     </cc:Agent>
    </dc:creator>
   </cc:Work>
  </rdf:RDF>
 </metadata>
 <defs>
  <style type="text/css">*{stroke-linejoin: round; stroke-linecap: butt}</style>
 </defs>
 <g id="figure_1">
  <g id="patch_1">
   <path d="M 0 360 
L 864 360 
L 864 0 
L 0 0 
z
" style="fill: #ffffff"/>
  </g>
  <g id="axes_1">
   <g id="patch_2">
    <path d="M 108 320.4 
L 777.6 320.4 
L 777.6 43.2 
L 108 43.2 
z
" style="fill: #ffffff"/>
   </g>
   <g id="matplotlib.axis_1">
    <g id="xtick_1">
     <g id="line2d_1">
      <path d="M 138.436364 320.4 
L 138.436364 43.2 
" clip-path="url(#p29242d436a)" style="fill: none; stroke: #b0b0b0; stroke-width: 0.8; stroke-linecap: square"/>
     </g>
     <g id="line2d_2">
      <defs>
       <path id="m4a86ff7245" d="M 0 0 
L 0 3.5 
" style="stroke: #000000; stroke-width: 0.8"/>
      </defs>
      <g>
       <use xlink:href="#m4a86ff7245" x="138.436364" y="320.4" style="stroke: #000000; stroke-width: 0.8"/>
      </g>
     </g>
     <g id="text_1">
      <!-- 0.00 -->
      <g transform="translate(127.303551 334.998438)scale(0.1 -0.1)">
       <defs>
        <path id="DejaVuSans-30" d="M 2034 4250 
Q 1547 4250 1301 3770 
Q 1056 3291 1056 2328 
Q 1056 1369 1301 889 
Q 1547 409 2034 409 
Q 2525 409 2770 889 
Q 3016 1369 3016 2328 
Q 3016 3291 2770 3770 
Q 2525 4250 2034 4250 
z
M 2034 4750 
Q 2819 4750 3233 4129 
Q 3647 3509 3647 2328 
Q 3647 1150 3233 529 
Q 2819 -91 2034 -91 
Q 1250 -91 836 529 
Q 422 1150 422 2328 
Q 422 3509 836 4129 
Q 1250 4750 2034 4750 
z
" transform="scale(0.015625)"/>
        <path id="DejaVuSans-2e" d="M 684 794 
L 1344 794 
L 1344 0 
L 684 0 
L 684 794 
z
" transform="scale(0.015625)"/>
       </defs>
       <use xlink:href="#DejaVuSans-30"/>
       <use xlink:href="#DejaVuSans-2e" x="63.623047"/>
       <use xlink:href="#DejaVuSans-30" x="95.410156"/>
       <use xlink:href="#DejaVuSans-30" x="159.033203"/>
      </g>
     </g>
    </g>
    <g id="xtick_2">
     <g id="line2d_3">
      <path d="M 287.069564 320.4 
L 287.069564 43.2 
" clip-path="url(#p29242d436a)" style="fill: none; stroke: #b0b0b0; stroke-width: 0.8; stroke-linecap: square"/>
     </g>
     <g id="line2d_4">
      <g>
       <use xlink:href="#m4a86ff7245" x="287.069564" y="320.4" style="stroke: #000000; stroke-width: 0.8"/>
      </g>
     </g>
     <g id="text_2">
      <!-- 0.05 -->
      <g transform="translate(275.936752 334.998438)scale(0.1 -0.1)">
       <defs>
        <path id="DejaVuSans-35" d="M 691 4666 
L 3169 4666 
L 3169 4134 
L 1269 4134 
L 1269 2991 
Q 1406 3038 1543 3061 
Q 1681 3084 1819 3084 
Q 2600 3084 3056 2656 
Q 3513 2228 3513 1497 
Q 3513 744 3044 326 
Q 2575 -91 1722 -91 
Q 1428 -91 1123 -41 
Q 819 9 494 109 
L 494 744 
Q 775 591 1075 516 
Q 1375 441 1709 441 
Q 2250 441 2565 725 
Q 2881 1009 2881 1497 
Q 2881 1984 2565 2268 
Q 2250 2553 1709 2553 
Q 1456 2553 1204 2497 
Q 953 2441 691 2322 
L 691 4666 
z
" transform="scale(0.015625)"/>
       </defs>
       <use xlink:href="#DejaVuSans-30"/>
       <use xlink:href="#DejaVuSans-2e" x="63.623047"/>
       <use xlink:href="#DejaVuSans-30" x="95.410156"/>
       <use xlink:href="#DejaVuSans-35" x="159.033203"/>
      </g>
     </g>
    </g>
    <g id="xtick_3">
     <g id="line2d_5">
      <path d="M 435.702765 320.4 
L 435.702765 43.2 
" clip-path="url(#p29242d436a)" style="fill: none; stroke: #b0b0b0; stroke-width: 0.8; stroke-linecap: square"/>
     </g>
     <g id="line2d_6">
      <g>
       <use xlink:href="#m4a86ff7245" x="435.702765" y="320.4" style="stroke: #000000; stroke-width: 0.8"/>
      </g>
     </g>
     <g id="text_3">
      <!-- 0.10 -->
      <g transform="translate(424.569952 334.998438)scale(0.1 -0.1)">
       <defs>
        <path id="DejaVuSans-31" d="M 794 531 
L 1825 531 
L 1825 4091 
L 703 3866 
L 703 4441 
L 1819 4666 
L 2450 4666 
L 2450 531 
L 3481 531 
L 3481 0 
L 794 0 
L 794 531 
z
" transform="scale(0.015625)"/>
       </defs>
       <use xlink:href="#DejaVuSans-30"/>
       <use xlink:href="#DejaVuSans-2e" x="63.623047"/>
       <use xlink:href="#DejaVuSans-31" x="95.410156"/>
       <use xlink:href="#DejaVuSans-30" x="159.033203"/>
      </g>
     </g>
    </g>
    <g id="xtick_4">
     <g id="line2d_7">
      <path d="M 584.335965 320.4 
L 584.335965 43.2 
" clip-path="url(#p29242d436a)" style="fill: none; stroke: #b0b0b0; stroke-width: 0.8; stroke-linecap: square"/>
     </g>
     <g id="line2d_8">
      <g>
       <use xlink:href="#m4a86ff7245" x="584.335965" y="320.4" style="stroke: #000000; stroke-width: 0.8"/>
      </g>
     </g>
     <g id="text_4">
      <!-- 0.15 -->
      <g transform="translate(573.203153 334.998438)scale(0.1 -0.1)">
       <use xlink:href="#DejaVuSans-30"/>
       <use xlink:href="#DejaVuSans-2e" x="63.623047"/>
       <use xlink:href="#DejaVuSans-31" x="95.410156"/>
       <use xlink:href="#DejaVuSans-35" x="159.033203"/>
      </g>
     </g>
    </g>
    <g id="xtick_5">
     <g id="line2d_9">
      <path d="M 732.969166 320.4 
L 732.969166 43.2 
" clip-path="url(#p29242d436a)" style="fill: none; stroke: #b0b0b0; stroke-width: 0.8; stroke-linecap: square"/>
     </g>
     <g id="line2d_10">
      <g>
       <use xlink:href="#m4a86ff7245" x="732.969166" y="320.4" style="stroke: #000000; stroke-width: 0.8"/>
      </g>
     </g>
     <g id="text_5">
      <!-- 0.20 -->
      <g transform="translate(721.836353 334.998438)scale(0.1 -0.1)">
       <defs>
        <path id="DejaVuSans-32" d="M 1228 531 
L 3431 531 
L 3431 0 
L 469 0 
L 469 531 
Q 828 903 1448 1529 
Q 2069 2156 2228 2338 
Q 2531 2678 2651 2914 
Q 2772 3150 2772 3378 
Q 2772 3750 2511 3984 
Q 2250 4219 1831 4219 
Q 1534 4219 1204 4116 
Q 875 4013 500 3803 
L 500 4441 
Q 881 4594 1212 4672 
Q 1544 4750 1819 4750 
Q 2544 4750 2975 4387 
Q 3406 4025 3406 3419 
Q 3406 3131 3298 2873 
Q 3191 2616 2906 2266 
Q 2828 2175 2409 1742 
Q 1991 1309 1228 531 
z
" transform="scale(0.015625)"/>
       </defs>
       <use xlink:href="#DejaVuSans-30"/>
       <use xlink:href="#DejaVuSans-2e" x="63.623047"/>
       <use xlink:href="#DejaVuSans-32" x="95.410156"/>
       <use xlink:href="#DejaVuSans-30" x="159.033203"/>
      </g>
     </g>
    </g>
    <g id="text_6">
     <!-- time -->
     <g transform="translate(431.503906 348.676562)scale(0.1 -0.1)">
      <defs>
       <path id="DejaVuSans-74" d="M 1172 4494 
L 1172 3500 
L 2356 3500 
L 2356 3053 
L 1172 3053 
L 1172 1153 
Q 1172 725 1289 603 
Q 1406 481 1766 481 
L 2356 481 
L 2356 0 
L 1766 0 
Q 1100 0 847 248 
Q 594 497 594 1153 
L 594 3053 
L 172 3053 
L 172 3500 
L 594 3500 
L 594 4494 
L 1172 4494 
z
" transform="scale(0.015625)"/>
       <path id="DejaVuSans-69" d="M 603 3500 
L 1178 3500 
L 1178 0 
L 603 0 
L 603 3500 
z
M 603 4863 
L 1178 4863 
L 1178 4134 
L 603 4134 
L 603 4863 
z
" transform="scale(0.015625)"/>
       <path id="DejaVuSans-6d" d="M 3328 2828 
Q 3544 3216 3844 3400 
Q 4144 3584 4550 3584 
Q 5097 3584 5394 3201 
Q 5691 2819 5691 2113 
L 5691 0 
L 5113 0 
L 5113 2094 
Q 5113 2597 4934 2840 
Q 4756 3084 4391 3084 
Q 3944 3084 3684 2787 
Q 3425 2491 3425 1978 
L 3425 0 
L 2847 0 
L 2847 2094 
Q 2847 2600 2669 2842 
Q 2491 3084 2119 3084 
Q 1678 3084 1418 2786 
Q 1159 2488 1159 1978 
L 1159 0 
L 581 0 
L 581 3500 
L 1159 3500 
L 1159 2956 
Q 1356 3278 1631 3431 
Q 1906 3584 2284 3584 
Q 2666 3584 2933 3390 
Q 3200 3197 3328 2828 
z
" transform="scale(0.015625)"/>
       <path id="DejaVuSans-65" d="M 3597 1894 
L 3597 1613 
L 953 1613 
Q 991 1019 1311 708 
Q 1631 397 2203 397 
Q 2534 397 2845 478 
Q 3156 559 3463 722 
L 3463 178 
Q 3153 47 2828 -22 
Q 2503 -91 2169 -91 
Q 1331 -91 842 396 
Q 353 884 353 1716 
Q 353 2575 817 3079 
Q 1281 3584 2069 3584 
Q 2775 3584 3186 3129 
Q 3597 2675 3597 1894 
z
M 3022 2063 
Q 3016 2534 2758 2815 
Q 2500 3097 2075 3097 
Q 1594 3097 1305 2825 
Q 1016 2553 972 2059 
L 3022 2063 
z
" transform="scale(0.015625)"/>
      </defs>
      <use xlink:href="#DejaVuSans-74"/>
      <use xlink:href="#DejaVuSans-69" x="39.208984"/>
      <use xlink:href="#DejaVuSans-6d" x="66.992188"/>
      <use xlink:href="#DejaVuSans-65" x="164.404297"/>
     </g>
    </g>
   </g>
   <g id="matplotlib.axis_2">
    <g id="ytick_1">
     <g id="line2d_11">
      <path d="M 108 283.615733 
L 777.6 283.615733 
" clip-path="url(#p29242d436a)" style="fill: none; stroke: #b0b0b0; stroke-width: 0.8; stroke-linecap: square"/>
     </g>
     <g id="line2d_12">
      <defs>
       <path id="mf78dd248a1" d="M 0 0 
L -3.5 0 
" style="stroke: #000000; stroke-width: 0.8"/>
      </defs>
      <g>
       <use xlink:href="#mf78dd248a1" x="108" y="283.615733" style="stroke: #000000; stroke-width: 0.8"/>
      </g>
     </g>
     <g id="text_7">
      <!-- −4 -->
      <g transform="translate(86.257812 287.414952)scale(0.1 -0.1)">
       <defs>
        <path id="DejaVuSans-2212" d="M 678 2272 
L 4684 2272 
L 4684 1741 
L 678 1741 
L 678 2272 
z
" transform="scale(0.015625)"/>
        <path id="DejaVuSans-34" d="M 2419 4116 
L 825 1625 
L 2419 1625 
L 2419 4116 
z
M 2253 4666 
L 3047 4666 
L 3047 1625 
L 3713 1625 
L 3713 1100 
L 3047 1100 
L 3047 0 
L 2419 0 
L 2419 1100 
L 313 1100 
L 313 1709 
L 2253 4666 
z
" transform="scale(0.015625)"/>
       </defs>
       <use xlink:href="#DejaVuSans-2212"/>
       <use xlink:href="#DejaVuSans-34" x="83.789062"/>
      </g>
     </g>
    </g>
    <g id="ytick_2">
     <g id="line2d_13">
      <path d="M 108 235.689522 
L 777.6 235.689522 
" clip-path="url(#p29242d436a)" style="fill: none; stroke: #b0b0b0; stroke-width: 0.8; stroke-linecap: square"/>
     </g>
     <g id="line2d_14">
      <g>
       <use xlink:href="#mf78dd248a1" x="108" y="235.689522" style="stroke: #000000; stroke-width: 0.8"/>
      </g>
     </g>
     <g id="text_8">
      <!-- −2 -->
      <g transform="translate(86.257812 239.488741)scale(0.1 -0.1)">
       <use xlink:href="#DejaVuSans-2212"/>
       <use xlink:href="#DejaVuSans-32" x="83.789062"/>
      </g>
     </g>
    </g>
    <g id="ytick_3">
     <g id="line2d_15">
      <path d="M 108 187.763311 
L 777.6 187.763311 
" clip-path="url(#p29242d436a)" style="fill: none; stroke: #b0b0b0; stroke-width: 0.8; stroke-linecap: square"/>
     </g>
     <g id="line2d_16">
      <g>
       <use xlink:href="#mf78dd248a1" x="108" y="187.763311" style="stroke: #000000; stroke-width: 0.8"/>
      </g>
     </g>
     <g id="text_9">
      <!-- 0 -->
      <g transform="translate(94.6375 191.56253)scale(0.1 -0.1)">
       <use xlink:href="#DejaVuSans-30"/>
      </g>
     </g>
    </g>
    <g id="ytick_4">
     <g id="line2d_17">
      <path d="M 108 139.8371 
L 777.6 139.8371 
" clip-path="url(#p29242d436a)" style="fill: none; stroke: #b0b0b0; stroke-width: 0.8; stroke-linecap: square"/>
     </g>
     <g id="line2d_18">
      <g>
       <use xlink:href="#mf78dd248a1" x="108" y="139.8371" style="stroke: #000000; stroke-width: 0.8"/>
      </g>
     </g>
     <g id="text_10">
      <!-- 2 -->
      <g transform="translate(94.6375 143.636319)scale(0.1 -0.1)">
       <use xlink:href="#DejaVuSans-32"/>
      </g>
     </g>
    </g>
    <g id="ytick_5">
     <g id="line2d_19">
      <path d="M 108 91.910889 
L 777.6 91.910889 
" clip-path="url(#p29242d436a)" style="fill: none; stroke: #b0b0b0; stroke-width: 0.8; stroke-linecap: square"/>
     </g>
     <g id="line2d_20">
      <g>
       <use xlink:href="#mf78dd248a1" x="108" y="91.910889" style="stroke: #000000; stroke-width: 0.8"/>
      </g>
     </g>
     <g id="text_11">
      <!-- 4 -->
      <g transform="translate(94.6375 95.710108)scale(0.1 -0.1)">
       <use xlink:href="#DejaVuSans-34"/>
      </g>
     </g>
    </g>
    <g id="ytick_6">
     <g id="line2d_21">
      <path d="M 108 43.984678 
L 777.6 43.984678 
" clip-path="url(#p29242d436a)" style="fill: none; stroke: #b0b0b0; stroke-width: 0.8; stroke-linecap: square"/>
     </g>
     <g id="line2d_22">
      <g>
       <use xlink:href="#mf78dd248a1" x="108" y="43.984678" style="stroke: #000000; stroke-width: 0.8"/>
      </g>
     </g>
     <g id="text_12">
      <!-- 6 -->
      <g transform="translate(94.6375 47.783897)scale(0.1 -0.1)">
       <defs>
        <path id="DejaVuSans-36" d="M 2113 2584 
Q 1688 2584 1439 2293 
Q 1191 2003 1191 1497 
Q 1191 994 1439 701 
Q 1688 409 2113 409 
Q 2538 409 2786 701 
Q 3034 994 3034 1497 
Q 3034 2003 2786 2293 
Q 2538 2584 2113 2584 
z
M 3366 4563 
L 3366 3988 
Q 3128 4100 2886 4159 
Q 2644 4219 2406 4219 
Q 1781 4219 1451 3797 
Q 1122 3375 1075 2522 
Q 1259 2794 1537 2939 
Q 1816 3084 2150 3084 
Q 2853 3084 3261 2657 
Q 3669 2231 3669 1497 
Q 3669 778 3244 343 
Q 2819 -91 2113 -91 
Q 1303 -91 875 529 
Q 447 1150 447 2328 
Q 447 3434 972 4092 
Q 1497 4750 2381 4750 
Q 2619 4750 2861 4703 
Q 3103 4656 3366 4563 
z
" transform="scale(0.015625)"/>
       </defs>
       <use xlink:href="#DejaVuSans-36"/>
      </g>
     </g>
    </g>
   </g>
   <g id="line2d_23">
    <path d="M 138.436364 150.786059 
L 138.73363 148.978146 
L 138.882263 148.712983 
L 139.030896 148.852109 
L 139.253846 149.765786 
L 139.551113 152.1352 
L 140.071329 158.557765 
L 141.334711 175.239098 
L 141.706294 177.676121 
L 141.929244 178.260106 
L 142.077877 178.264304 
L 142.22651 177.960235 
L 142.44946 176.942312 
L 142.821043 173.881158 
L 143.415576 166.383046 
L 144.530325 151.624454 
L 144.901908 148.923189 
L 145.124858 148.215018 
L 145.273491 148.163718 
L 145.422124 148.461918 
L 145.645074 149.572131 
L 145.94234 152.263497 
L 146.38824 158.629489 
L 147.131406 173.335946 
L 148.097522 191.8849 
L 148.543421 196.941309 
L 148.840688 198.366201 
L 148.989321 198.428404 
L 149.137954 198.041967 
L 149.360904 196.616092 
L 149.65817 193.171629 
L 150.10407 185.008577 
L 150.772919 167.884133 
L 152.110618 132.818095 
L 152.630834 125.064428 
L 152.928101 123.013156 
L 153.15105 122.678636 
L 153.299684 123.025074 
L 153.522633 124.369281 
L 153.894216 128.626867 
L 154.414433 137.958879 
L 156.346664 176.412116 
L 156.792564 180.055117 
L 157.08983 180.888933 
L 157.238464 180.857751 
L 157.461413 180.308792 
L 157.75868 178.788966 
L 158.353213 174.13601 
L 159.096379 168.740674 
L 159.393645 167.747049 
L 159.542278 167.630171 
L 159.690911 167.797254 
L 159.913861 168.614617 
L 160.211128 170.802735 
L 160.657027 176.378372 
L 161.25156 187.283807 
L 162.737892 216.091078 
L 163.109475 219.565464 
L 163.332425 220.375471 
L 163.481058 220.335353 
L 163.629691 219.814348 
L 163.852641 218.117561 
L 164.224224 212.881024 
L 164.670124 202.952098 
L 165.338973 182.517625 
L 166.899622 133.040321 
L 167.419838 123.397556 
L 167.791421 119.805971 
L 168.014371 118.985666 
L 168.163004 118.970566 
L 168.311637 119.356522 
L 168.534587 120.626548 
L 168.90617 124.294507 
L 169.575019 133.862057 
L 170.466818 146.167661 
L 170.912718 149.695645 
L 171.209984 150.630171 
L 171.358618 150.64927 
L 171.507251 150.373507 
L 171.730201 149.431324 
L 172.101784 146.613891 
L 172.696316 139.907329 
L 173.662432 129.203372 
L 174.034015 127.178564 
L 174.256965 126.873475 
L 174.405598 127.09332 
L 174.628548 128.088377 
L 174.925814 130.673546 
L 175.371714 137.11159 
L 175.966247 149.479983 
L 177.526895 183.620072 
L 177.972795 188.334126 
L 178.195745 189.272911 
L 178.344378 189.34203 
L 178.493011 188.962098 
L 178.715961 187.561694 
L 179.087544 183.139238 
L 179.60776 173.300894 
L 181.614308 130.710546 
L 181.911575 128.524767 
L 182.134525 128.060581 
L 182.283158 128.323349 
L 182.506108 129.567762 
L 182.803374 132.746077 
L 183.249274 140.375988 
L 183.99244 158.203723 
L 185.181505 186.963817 
L 185.701721 195.085998 
L 186.147621 198.899006 
L 186.444887 199.864136 
L 186.593521 199.923094 
L 186.742154 199.733805 
L 187.03942 198.739184 
L 187.559636 195.817757 
L 188.228486 192.378973 
L 188.525752 191.839723 
L 188.674385 191.923618 
L 188.897335 192.558861 
L 189.194602 194.437607 
L 189.566185 198.502364 
L 190.086401 207.137982 
L 191.052517 228.344199 
L 191.795683 242.781499 
L 192.241582 247.878475 
L 192.538849 249.15658 
L 192.613165 249.181864 
L 192.761798 248.86547 
L 192.984748 247.458955 
L 193.282015 243.847377 
L 193.727914 234.923719 
L 194.322447 217.715279 
L 196.328995 154.43596 
L 196.774895 147.293782 
L 197.146478 144.346636 
L 197.369428 143.846632 
L 197.518061 144.002819 
L 197.741011 144.901686 
L 198.112594 147.87551 
L 198.781443 155.941184 
L 199.598926 165.173205 
L 199.970509 167.439745 
L 200.193458 167.960383 
L 200.342092 167.929947 
L 200.490725 167.592378 
L 200.713675 166.517178 
L 201.085258 163.30883 
L 201.605474 156.458074 
L 203.091806 135.405069 
L 203.463389 133.163192 
L 203.686339 132.815145 
L 203.834972 133.023863 
L 204.057922 134.004056 
L 204.355188 136.5202 
L 204.801088 142.590721 
L 205.544254 156.622744 
L 206.436053 172.828632 
L 206.881952 177.657281 
L 207.179219 178.970856 
L 207.327852 178.986067 
L 207.476485 178.556709 
L 207.699435 177.07119 
L 208.071018 172.404875 
L 208.516918 163.564818 
L 209.260084 143.513032 
L 210.449149 111.713988 
L 210.969365 103.424427 
L 211.340948 100.758736 
L 211.489582 100.499547 
L 211.638215 100.699203 
L 211.861165 101.834115 
L 212.158431 104.802345 
L 212.604331 111.881517 
L 213.421813 129.595791 
L 214.387929 149.161243 
L 214.908145 155.559541 
L 215.279728 157.766729 
L 215.502678 158.157038 
L 215.651311 158.057306 
L 215.874261 157.42481 
L 216.245844 155.335291 
L 217.65786 145.719283 
L 217.880809 145.446044 
L 218.029443 145.612504 
L 218.252392 146.428761 
L 218.549659 148.621246 
L 218.921242 153.116963 
L 219.441458 162.23832 
L 221.299373 197.970314 
L 221.596639 200.113997 
L 221.819589 200.548128 
L 221.968222 200.244955 
L 222.191172 198.880369 
L 222.488439 195.371323 
L 222.934338 186.717528 
L 223.528871 170.121685 
L 225.386786 114.057878 
L 225.832686 107.011652 
L 226.204269 104.204782 
L 226.427218 103.853506 
L 226.575852 104.146374 
L 226.798801 105.317941 
L 227.170384 108.958333 
L 227.764917 117.761839 
L 228.879666 134.809635 
L 229.325566 138.736105 
L 229.622832 139.926004 
L 229.771465 140.075078 
L 229.920099 139.933207 
L 230.143048 139.202976 
L 230.514631 136.781563 
L 231.109164 130.862804 
L 231.926647 122.867277 
L 232.29823 120.973203 
L 232.52118 120.694128 
L 232.669813 120.916897 
L 232.892763 121.904704 
L 233.190029 124.480677 
L 233.635929 130.975402 
L 234.230461 143.715197 
L 236.01406 184.94033 
L 236.385643 188.970667 
L 236.682909 190.258754 
L 236.831542 190.231579 
L 236.980176 189.758751 
L 237.203125 188.237023 
L 237.574708 183.702985 
L 238.094925 174.01645 
L 239.804206 139.31488 
L 240.175789 136.240913 
L 240.398739 135.701398 
L 240.547372 135.910706 
L 240.770322 137.081619 
L 241.067589 140.197879 
L 241.513488 147.877429 
L 242.182338 164.32091 
L 243.66867 202.507718 
L 244.188886 210.648953 
L 244.634785 214.450674 
L 244.932052 215.460859 
L 245.080685 215.570867 
L 245.229318 215.45649 
L 245.452268 214.940134 
L 245.898168 213.153105 
L 246.4927 210.887982 
L 246.71565 210.556337 
L 246.864283 210.59052 
L 247.087233 211.097285 
L 247.3845 212.737811 
L 247.756083 216.476327 
L 248.201982 223.412671 
L 248.870832 237.75757 
L 250.20853 267.280126 
L 250.65443 272.649647 
L 250.951696 274.058576 
L 251.10033 274.042623 
L 251.248963 273.529958 
L 251.471913 271.822522 
L 251.843496 266.531487 
L 252.289395 256.531668 
L 253.032561 233.6019 
L 254.37026 191.126825 
L 254.890476 180.503397 
L 255.336376 175.519007 
L 255.633642 174.357026 
L 255.782275 174.388099 
L 255.930909 174.796959 
L 256.228175 176.625248 
L 256.674075 181.320456 
L 258.160407 199.087253 
L 258.457673 200.539087 
L 258.680623 200.848878 
L 258.829256 200.66968 
L 259.052206 199.825387 
L 259.349472 197.678905 
L 259.795372 192.606122 
L 261.653287 168.362305 
L 261.950553 167.343961 
L 262.099186 167.347508 
L 262.24782 167.703753 
L 262.470769 168.898921 
L 262.842352 172.573928 
L 263.362569 180.676508 
L 265.146167 211.629902 
L 265.443433 213.48424 
L 265.592067 213.785252 
L 265.7407 213.646064 
L 265.96365 212.593847 
L 266.260916 209.621237 
L 266.706816 202.015537 
L 267.301348 187.232871 
L 269.01063 141.64954 
L 269.45653 135.592864 
L 269.753796 133.780492 
L 269.902429 133.563585 
L 270.051063 133.800355 
L 270.274012 134.977055 
L 270.571279 137.965737 
L 271.017178 144.975417 
L 271.908978 163.798809 
L 272.72646 179.405925 
L 273.246677 185.482199 
L 273.61826 187.448704 
L 273.841209 187.681414 
L 273.989843 187.468785 
L 274.212792 186.65268 
L 274.584375 184.212095 
L 276.145024 172.156217 
L 276.367974 171.90383 
L 276.516607 172.100192 
L 276.739557 172.974089 
L 277.036823 175.242184 
L 277.482723 180.88798 
L 278.151572 193.1593 
L 279.340638 215.523076 
L 279.786537 219.996295 
L 280.009487 220.856972 
L 280.15812 220.860434 
L 280.306754 220.387908 
L 280.529703 218.767263 
L 280.82697 214.906057 
L 281.272869 205.679943 
L 281.867402 188.191269 
L 283.799634 126.450197 
L 284.31985 117.987998 
L 284.691433 115.288977 
L 284.914383 114.969927 
L 285.063016 115.260592 
L 285.285966 116.38242 
L 285.657549 119.785661 
L 286.326398 128.808737 
L 287.218197 140.254715 
L 287.664097 143.3148 
L 287.887047 143.890331 
L 288.03568 143.900928 
L 288.184313 143.614553 
L 288.407263 142.647392 
L 288.778846 139.746168 
L 289.373379 132.735591 
L 290.413811 120.32592 
L 290.785394 118.071682 
L 291.008344 117.637718 
L 291.156977 117.774187 
L 291.379927 118.646502 
L 291.677193 121.069084 
L 292.123093 127.255442 
L 292.717626 139.250258 
L 294.203958 171.033876 
L 294.649857 175.892436 
L 294.947124 177.057669 
L 295.095757 176.974217 
L 295.24439 176.442338 
L 295.541657 174.060334 
L 295.91324 168.790566 
L 296.507772 156.220256 
L 298.142738 118.807853 
L 298.588637 114.10223 
L 298.811587 113.22476 
L 298.96022 113.21141 
L 299.108853 113.655641 
L 299.331803 115.162431 
L 299.703386 119.769297 
L 300.223602 129.848373 
L 302.378784 177.399126 
L 302.824683 181.36257 
L 303.12195 182.409601 
L 303.270583 182.497374 
L 303.419216 182.326226 
L 303.642166 181.649789 
L 304.013749 179.700137 
L 305.054181 173.8053 
L 305.277131 173.409592 
L 305.425764 173.450477 
L 305.574398 173.762581 
L 305.797347 174.776378 
L 306.094614 177.194233 
L 306.540513 183.068635 
L 307.135046 194.343105 
L 308.621378 224.232194 
L 308.992961 228.005159 
L 309.215911 228.986914 
L 309.364544 229.055151 
L 309.513177 228.635713 
L 309.736127 227.074901 
L 310.033394 223.261708 
L 310.479293 214.055361 
L 311.073826 196.531502 
L 313.080374 132.879649 
L 313.526274 125.759901 
L 313.897857 122.836043 
L 314.120807 122.347427 
L 314.26944 122.50887 
L 314.49239 123.410791 
L 314.863973 126.373198 
L 315.532822 134.354606 
L 316.350305 143.374389 
L 316.721888 145.517288 
L 316.944837 145.96042 
L 317.093471 145.878179 
L 317.31642 145.180827 
L 317.613687 143.211406 
L 318.059586 138.302719 
L 318.802752 126.94222 
L 319.620235 115.178503 
L 320.066135 111.431462 
L 320.363401 110.509566 
L 320.512034 110.570994 
L 320.734984 111.331823 
L 321.03225 113.571331 
L 321.47815 119.299029 
L 322.146999 131.579756 
L 323.187432 150.720985 
L 323.633331 155.46498 
L 323.930598 156.71121 
L 324.079231 156.691263 
L 324.227864 156.226632 
L 324.450814 154.68947 
L 324.822397 149.946132 
L 325.342613 139.270692 
L 326.160096 116.625585 
L 327.126212 91.02385 
L 327.646428 82.263611 
L 328.018011 79.209556 
L 328.240961 78.758871 
L 328.389594 79.032937 
L 328.612544 80.277748 
L 328.90981 83.386115 
L 329.35571 90.653336 
L 330.173192 108.617014 
L 331.064992 127.10793 
L 331.585208 134.067599 
L 331.956791 136.699014 
L 332.179741 137.335177 
L 332.328374 137.391 
L 332.477007 137.175667 
L 332.699957 136.401947 
L 333.07154 134.183088 
L 334.260605 126.049602 
L 334.557872 125.461626 
L 334.706505 125.567335 
L 334.929455 126.282466 
L 335.226721 128.333698 
L 335.598304 132.669853 
L 336.11852 141.665421 
L 338.125069 180.256497 
L 338.422335 182.013239 
L 338.570968 182.207684 
L 338.719601 181.925107 
L 338.942551 180.591771 
L 339.239818 177.12865 
L 339.685717 168.563702 
L 340.28025 152.14787 
L 342.138165 97.24767 
L 342.584065 90.583597 
L 342.881331 88.373915 
L 343.104281 87.890747 
L 343.252914 88.105436 
L 343.475864 89.180065 
L 343.77313 91.864288 
L 344.293346 99.149019 
L 345.779678 122.195645 
L 346.225578 125.488246 
L 346.522844 126.216355 
L 346.671478 126.142728 
L 346.894427 125.518838 
L 347.191694 123.838569 
L 347.71191 119.246335 
L 348.678026 110.358409 
L 349.049609 108.791099 
L 349.198242 108.662421 
L 349.346875 108.856743 
L 349.569825 109.792597 
L 349.867091 112.294465 
L 350.238674 117.427166 
L 350.758891 127.926994 
L 351.799323 155.029893 
L 352.616806 173.383809 
L 353.062705 179.343967 
L 353.359972 181.217125 
L 353.508605 181.485359 
L 353.657238 181.306294 
L 353.880188 180.216322 
L 354.177454 177.318713 
L 354.623354 170.338439 
L 355.440836 152.841678 
L 356.258319 136.688884 
L 356.704219 131.424301 
L 357.001485 129.937595 
L 357.150118 129.861935 
L 357.298751 130.243428 
L 357.521701 131.672558 
L 357.818968 135.129516 
L 358.264867 143.302557 
L 358.933717 160.421939 
L 360.420049 199.789079 
L 360.940265 208.278595 
L 361.386164 212.381324 
L 361.683431 213.601838 
L 361.906381 213.8464 
L 362.055014 213.747578 
L 362.35228 213.086349 
L 363.318396 210.309792 
L 363.467029 210.29059 
L 363.615662 210.484433 
L 363.838612 211.235992 
L 364.135879 213.210046 
L 364.507462 217.370317 
L 365.027678 226.281278 
L 365.770844 243.572528 
L 366.885593 269.24241 
L 367.331492 275.502434 
L 367.628759 277.563236 
L 367.777392 277.883759 
L 367.851709 277.859687 
L 368.000342 277.437614 
L 368.223292 275.866443 
L 368.520558 272.055729 
L 368.966458 262.972272 
L 369.635307 243.641688 
L 371.195956 196.015698 
L 371.716172 186.747424 
L 372.087755 183.338072 
L 372.310705 182.590653 
L 372.459338 182.608344 
L 372.607971 183.014146 
L 372.905237 184.87534 
L 373.351137 189.741228 
L 374.986102 210.376209 
L 375.283369 211.767673 
L 375.506318 212.016269 
L 375.654952 211.795516 
L 375.877901 210.896833 
L 376.249484 208.005232 
L 376.769701 201.696949 
L 378.107399 184.252104 
L 378.478982 182.035084 
L 378.701932 181.662076 
L 378.850565 181.844678 
L 379.073515 182.780587 
L 379.370782 185.24748 
L 379.816681 191.322431 
L 380.485531 204.190623 
L 381.60028 225.593223 
L 382.046179 230.386408 
L 382.343446 231.60814 
L 382.492079 231.564096 
L 382.640712 231.070066 
L 382.863662 229.483261 
L 383.235245 224.659053 
L 383.755461 213.923139 
L 384.64726 189.296332 
L 385.539059 166.517775 
L 386.059276 158.279319 
L 386.430859 155.615284 
L 386.579492 155.351211 
L 386.728125 155.543782 
L 386.951075 156.665305 
L 387.248341 159.6136 
L 387.694241 166.666555 
L 388.511724 184.370021 
L 389.477839 203.984513 
L 389.998056 210.407668 
L 390.369639 212.615282 
L 390.592588 212.994567 
L 390.741222 212.881652 
L 390.964171 212.219409 
L 391.335754 210.050331 
L 392.822086 199.539457 
L 393.045036 199.306706 
L 393.193669 199.506855 
L 393.416619 200.378122 
L 393.713886 202.639772 
L 394.159785 208.309045 
L 394.754318 219.259591 
L 396.166333 246.589802 
L 396.537916 250.279644 
L 396.760866 251.24372 
L 396.909499 251.313074 
L 397.058133 250.904751 
L 397.281082 249.378712 
L 397.578349 245.644062 
L 398.024248 236.619548 
L 398.618781 219.446245 
L 400.551013 159.26308 
L 400.996912 152.117222 
L 401.368495 149.226983 
L 401.591445 148.8072 
L 401.740078 149.041552 
L 401.963028 150.100515 
L 402.334611 153.471385 
L 402.929144 161.586849 
L 403.969576 175.773387 
L 404.415476 179.024811 
L 404.712742 179.762066 
L 404.861376 179.682335 
L 405.084325 179.016096 
L 405.381592 177.183062 
L 405.827491 172.803944 
L 407.313823 156.426745 
L 407.61109 155.278149 
L 407.759723 155.184035 
L 407.908356 155.43421 
L 408.131306 156.477434 
L 408.428572 159.125251 
L 408.874472 165.633658 
L 409.543321 179.745026 
L 410.88102 209.204426 
L 411.32692 214.716313 
L 411.624186 216.355935 
L 411.772819 216.513836 
L 411.921453 216.22255 
L 412.144402 214.950512 
L 412.441669 211.760721 
L 412.887568 204.169126 
L 413.630734 186.658079 
L 414.671167 162.768359 
L 415.117066 156.529677 
L 415.414333 154.42853 
L 415.637283 154.03312 
L 415.785916 154.341728 
L 416.008866 155.651523 
L 416.306132 158.903955 
L 416.752032 166.598436 
L 417.495198 184.355355 
L 418.684263 212.502185 
L 419.204479 220.228725 
L 419.576062 223.317624 
L 419.873329 224.35968 
L 420.021962 224.44716 
L 420.170595 224.277853 
L 420.393545 223.609114 
L 420.839445 221.227889 
L 421.731244 216.213154 
L 422.02851 215.65987 
L 422.177143 215.744829 
L 422.400093 216.388913 
L 422.69736 218.286958 
L 423.068943 222.374137 
L 423.589159 231.003601 
L 424.629591 253.556764 
L 425.298441 265.892981 
L 425.74434 270.589076 
L 425.96729 271.50058 
L 426.115923 271.518672 
L 426.264556 271.047194 
L 426.487506 269.406243 
L 426.784773 265.48592 
L 427.230672 256.12915 
L 427.899522 235.940425 
L 429.68312 177.999542 
L 430.203336 168.654258 
L 430.574919 165.242412 
L 430.797869 164.475314 
L 430.946502 164.462031 
L 431.095135 164.817322 
L 431.392402 166.50309 
L 431.838301 170.8738 
L 433.176 185.650644 
L 433.547583 187.297047 
L 433.696216 187.450212 
L 433.84485 187.29856 
L 434.067799 186.496006 
L 434.365066 184.38748 
L 434.810965 179.28173 
L 435.628448 166.428972 
L 436.445931 154.885317 
L 436.89183 151.515621 
L 437.11478 150.923135 
L 437.263413 150.966076 
L 437.412046 151.365177 
L 437.634996 152.625681 
L 438.006579 156.391944 
L 438.526795 164.526439 
L 440.161761 192.806829 
L 440.533344 195.344523 
L 440.756293 195.631382 
L 440.904927 195.272614 
L 441.127876 193.893419 
L 441.425143 190.503482 
L 441.871042 182.354275 
L 442.539892 164.957187 
L 443.951907 126.36088 
L 444.472124 118.140229 
L 444.76939 115.837256 
L 444.99234 115.321012 
L 445.140973 115.549601 
L 445.363923 116.721914 
L 445.661189 119.722455 
L 446.107089 126.795698 
L 446.924571 144.277698 
L 447.816371 162.059089 
L 448.336587 168.544632 
L 448.70817 170.827034 
L 448.93112 171.254263 
L 449.079753 171.172215 
L 449.302703 170.55206 
L 449.674286 168.434677 
L 450.566085 161.0508 
L 451.011984 158.309304 
L 451.309251 157.535528 
L 451.457884 157.551012 
L 451.606517 157.861932 
L 451.829467 158.91028 
L 452.126733 161.418883 
L 452.572633 167.451838 
L 453.241482 180.39126 
L 454.504865 205.360069 
L 454.950764 209.944523 
L 455.173714 210.82758 
L 455.322347 210.838884 
L 455.47098 210.371496 
L 455.69393 208.759296 
L 455.991197 204.924899 
L 456.437096 195.815052 
L 457.105946 176.306957 
L 458.740911 125.355129 
L 459.261127 116.090704 
L 459.63271 112.783747 
L 459.85566 112.139626 
L 460.004293 112.24414 
L 460.227243 113.147729 
L 460.524509 115.590397 
L 461.044725 122.406535 
L 462.531057 143.770833 
L 462.90264 146.218516 
L 463.12559 146.808609 
L 463.274223 146.83104 
L 463.422857 146.564521 
L 463.645806 145.653611 
L 464.017389 142.956682 
L 464.686239 135.843588 
L 465.429405 128.449436 
L 465.800988 126.521811 
L 466.023938 126.239527 
L 466.172571 126.465081 
L 466.395521 127.461563 
L 466.692787 130.051043 
L 467.138687 136.549823 
L 467.733219 149.216031 
L 469.442501 188.290977 
L 469.888401 192.977473 
L 470.111351 193.875413 
L 470.259984 193.914666 
L 470.408617 193.506675 
L 470.631567 192.074908 
L 471.00315 187.655689 
L 471.523366 178.013278 
L 473.306964 141.236452 
L 473.678547 138.210767 
L 473.901497 137.710106 
L 474.05013 137.946655 
L 474.27308 139.157048 
L 474.570347 142.316449 
L 475.016246 150.020789 
L 475.685096 166.362569 
L 477.097111 202.229743 
L 477.617327 210.47191 
L 478.063227 214.363816 
L 478.360493 215.411366 
L 478.509126 215.528574 
L 478.65776 215.411991 
L 478.880709 214.872346 
L 479.326609 212.95766 
L 479.995458 210.133398 
L 480.218408 209.761942 
L 480.367041 209.77764 
L 480.515675 210.037496 
L 480.738624 210.934848 
L 481.035891 213.159416 
L 481.407474 217.650037 
L 481.92769 226.868567 
L 482.968122 250.835132 
L 483.711288 265.455744 
L 484.157188 270.387709 
L 484.380138 271.383426 
L 484.528771 271.449128 
L 484.677404 271.020657 
L 484.900354 269.439931 
L 485.19762 265.60248 
L 485.64352 256.407187 
L 486.312369 236.632816 
L 488.021651 182.79209 
L 488.541867 173.677084 
L 488.91345 170.408805 
L 489.1364 169.729106 
L 489.285033 169.777109 
L 489.507983 170.537743 
L 489.80525 172.664918 
L 490.325466 178.534841 
L 491.514531 192.613867 
L 491.886114 194.654209 
L 492.109064 195.008038 
L 492.257697 194.859654 
L 492.480647 194.059264 
L 492.777914 191.957847 
L 493.223813 186.898175 
L 494.115612 173.167298 
L 494.784462 164.145321 
L 495.230361 160.751316 
L 495.453311 160.125589 
L 495.601944 160.141135 
L 495.750578 160.51006 
L 495.973527 161.722768 
L 496.34511 165.412679 
L 496.865327 173.476045 
L 498.574608 202.796897 
L 498.871875 204.771703 
L 499.094825 205.165389 
L 499.243458 204.877517 
L 499.466408 203.600894 
L 499.763674 200.333664 
L 500.209574 192.317427 
L 500.878423 174.946443 
L 502.364755 133.997933 
L 502.884971 125.942601 
L 503.182238 123.747664 
L 503.405188 123.306862 
L 503.553821 123.579365 
L 503.776771 124.803207 
L 504.074037 127.836454 
L 504.519937 134.857557 
L 505.486052 155.020164 
L 506.229218 168.553814 
L 506.675118 173.649533 
L 507.046701 175.721441 
L 507.269651 176.010615 
L 507.418284 175.829261 
L 507.641234 175.046666 
L 508.012817 172.61531 
L 508.830299 164.898042 
L 509.424832 160.418312 
L 509.722099 159.41768 
L 509.870732 159.326607 
L 510.019365 159.533424 
L 510.242315 160.426433 
L 510.539581 162.719928 
L 510.985481 168.383509 
L 511.65433 180.576461 
L 512.769079 201.332716 
L 513.214979 205.986587 
L 513.512245 207.073662 
L 513.586562 207.06206 
L 513.735195 206.683076 
L 513.958145 205.206418 
L 514.255411 201.533582 
L 514.701311 192.550402 
L 515.295844 175.238788 
L 517.376708 109.262965 
L 517.822608 102.467941 
L 518.119874 100.177721 
L 518.342824 99.604222 
L 518.491457 99.734012 
L 518.714407 100.631626 
L 519.011674 102.964179 
L 519.53189 109.243498 
L 520.720955 124.469639 
L 521.092538 126.947566 
L 521.389805 127.65526 
L 521.538438 127.562039 
L 521.761388 126.870443 
L 522.058654 124.982095 
L 522.504554 120.441389 
L 524.139519 101.557831 
L 524.436785 100.545367 
L 524.585419 100.538096 
L 524.734052 100.883122 
L 524.957002 102.075748 
L 525.254268 104.916591 
L 525.700168 111.641965 
L 526.369017 125.746107 
L 527.558083 151.246836 
L 528.003982 156.893334 
L 528.301249 158.672842 
L 528.449882 158.908393 
L 528.598515 158.696395 
L 528.821465 157.540517 
L 529.118731 154.486622 
L 529.564631 147.018484 
L 530.23348 131.295799 
L 531.422546 103.054338 
L 531.868445 96.680768 
L 532.165712 94.505385 
L 532.388662 94.058855 
L 532.537295 94.334287 
L 532.760245 95.593999 
L 533.057511 98.775715 
L 533.503411 106.3465 
L 534.246577 123.823951 
L 535.361326 149.959621 
L 535.881542 157.897687 
L 536.253125 161.161839 
L 536.550391 162.329947 
L 536.699024 162.469602 
L 536.847658 162.342579 
L 537.070607 161.71497 
L 537.44219 159.791984 
L 538.556939 153.330751 
L 538.779889 152.963638 
L 538.928522 153.03031 
L 539.151472 153.652077 
L 539.448739 155.526885 
L 539.820322 159.588598 
L 540.340538 168.171969 
L 541.455287 192.075435 
L 542.124136 203.606608 
L 542.495719 207.113596 
L 542.718669 207.918839 
L 542.867302 207.864806 
L 543.015935 207.320932 
L 543.238885 205.572362 
L 543.610468 200.200263 
L 544.056368 190.021625 
L 544.725217 169.020899 
L 546.360182 115.46598 
L 546.880399 105.529997 
L 547.251982 101.687663 
L 547.549248 100.547643 
L 547.697881 100.578311 
L 547.846514 100.97544 
L 548.143781 102.736631 
L 548.58968 107.194436 
L 549.927379 122.028023 
L 550.298962 123.652971 
L 550.447595 123.796567 
L 550.596229 123.635695 
L 550.819178 122.821317 
L 551.116445 120.70396 
L 551.562344 115.608856 
L 552.379827 102.883398 
L 553.122993 92.404317 
L 553.568893 88.794802 
L 553.791842 88.058695 
L 553.940476 88.002263 
L 554.089109 88.301909 
L 554.312059 89.41847 
L 554.609325 92.106511 
L 555.055225 98.384746 
L 555.872707 114.030439 
L 556.69019 128.41562 
L 557.136089 132.91578 
L 557.433356 133.972842 
L 557.581989 133.853942 
L 557.804939 132.838628 
L 558.102205 129.927467 
L 558.473788 123.926946 
L 559.068321 109.899306 
L 560.926236 61.997376 
L 561.372136 56.916612 
L 561.595086 55.905279 
L 561.743719 55.810058 
L 561.892352 56.171918 
L 562.115302 57.542566 
L 562.486885 61.847849 
L 563.007101 71.240914 
L 564.939333 109.781594 
L 565.385232 113.459836 
L 565.682499 114.337253 
L 565.831132 114.335737 
L 566.054082 113.842649 
L 566.351348 112.420983 
L 566.945881 108.055151 
L 567.61473 103.519259 
L 567.911997 102.555567 
L 568.06063 102.442794 
L 568.209263 102.609331 
L 568.432213 103.421896 
L 568.729479 105.60835 
L 569.101062 110.108102 
L 569.621278 119.288761 
L 571.55351 156.928222 
L 571.850776 158.956943 
L 572.073726 159.289792 
L 572.222359 158.915506 
L 572.445309 157.443918 
L 572.742576 153.802392 
L 573.188475 145.004157 
L 573.857325 126.043692 
L 575.49229 76.948747 
L 576.012506 68.394789 
L 576.384089 65.607313 
L 576.607039 65.274644 
L 576.755672 65.585354 
L 576.978622 66.794604 
L 577.350205 70.534816 
L 577.944738 79.617173 
L 579.133803 98.496947 
L 579.579703 102.501906 
L 579.876969 103.732133 
L 580.025602 103.903296 
L 580.174236 103.787234 
L 580.397185 103.106505 
L 580.768768 100.809542 
L 581.363301 95.24137 
L 582.106467 88.551326 
L 582.47805 86.83712 
L 582.701 86.651064 
L 582.849633 86.931627 
L 583.072583 88.002516 
L 583.369849 90.688648 
L 583.815749 97.36671 
L 584.410282 110.431649 
L 586.268197 154.653474 
L 586.63978 158.710612 
L 586.937046 160.003958 
L 587.085679 159.979514 
L 587.234313 159.512213 
L 587.457262 158.008434 
L 587.828845 153.545984 
L 588.349062 144.090169 
L 589.90971 113.208173 
L 590.281293 109.798825 
L 590.504243 109.02004 
L 590.652876 109.063361 
L 590.801509 109.564674 
L 591.024459 111.172146 
L 591.396042 116.038784 
L 591.916258 126.816004 
L 592.808058 151.568863 
L 593.84849 178.656436 
L 594.443023 188.531952 
L 594.888922 192.531457 
L 595.186189 193.701626 
L 595.409139 193.923953 
L 595.557772 193.819259 
L 595.855038 193.170568 
L 596.746837 190.721237 
L 596.895471 190.677707 
L 597.044104 190.838062 
L 597.267054 191.525095 
L 597.56432 193.394381 
L 597.935903 197.412667 
L 598.456119 206.154607 
L 599.199285 223.393478 
L 600.388351 250.985855 
L 600.83425 257.117998 
L 601.131517 259.064326 
L 601.28015 259.322358 
L 601.428783 259.085524 
L 601.651733 257.79244 
L 601.948999 254.342447 
L 602.394899 245.747468 
L 602.989432 229.281423 
L 604.77303 176.100343 
L 605.293246 168.000178 
L 605.590513 165.752265 
L 605.813463 165.195626 
L 605.962096 165.335957 
L 606.185046 166.256063 
L 606.482312 168.645055 
L 607.002528 175.13966 
L 608.26591 192.210344 
L 608.637493 194.804561 
L 608.93476 195.560254 
L 609.083393 195.475492 
L 609.306343 194.77662 
L 609.603609 192.840394 
L 610.049509 188.14383 
L 611.758791 167.359526 
L 612.056057 166.268423 
L 612.20469 166.221458 
L 612.353323 166.523256 
L 612.576273 167.638725 
L 612.87354 170.339843 
L 613.319439 176.735278 
L 614.062605 191.560307 
L 615.028721 210.43067 
L 615.474621 215.691895 
L 615.771887 217.265744 
L 615.92052 217.404511 
L 616.069154 217.095229 
L 616.292103 215.78484 
L 616.58937 212.490649 
L 617.035269 204.535498 
L 617.704119 187.657679 
L 619.041818 152.786243 
L 619.562034 145.022023 
L 619.8593 142.95539 
L 620.08225 142.6086 
L 620.230883 142.947651 
L 620.453833 144.283453 
L 620.825416 148.538695 
L 621.345632 157.903646 
L 623.277864 196.922654 
L 623.723763 200.755565 
L 624.02103 201.713513 
L 624.169663 201.742038 
L 624.318296 201.496221 
L 624.615563 200.289403 
L 625.061462 197.201628 
L 626.027578 190.091591 
L 626.324844 189.120262 
L 626.473478 189.010848 
L 626.622111 189.183559 
L 626.845061 190.007054 
L 627.142327 192.201928 
L 627.51391 196.681746 
L 628.108443 207.223219 
L 629.743408 238.915298 
L 630.114991 242.057661 
L 630.337941 242.636032 
L 630.486574 242.433019 
L 630.709524 241.218246 
L 631.00679 237.894306 
L 631.45269 229.444791 
L 632.047223 212.889096 
L 634.053771 151.544177 
L 634.49967 144.861713 
L 634.796937 142.640157 
L 635.019887 142.129546 
L 635.16852 142.311238 
L 635.39147 143.307157 
L 635.763053 146.627005 
L 636.357585 154.833793 
L 637.472334 170.481483 
L 637.918234 173.769554 
L 638.2155 174.520719 
L 638.364134 174.448467 
L 638.587083 173.797532 
L 638.88435 171.998554 
L 639.330249 167.715979 
L 640.742265 152.614239 
L 641.039531 151.426118 
L 641.188164 151.302567 
L 641.336798 151.519012 
L 641.559747 152.507414 
L 641.857014 155.083785 
L 642.302913 161.518019 
L 642.897446 173.920376 
L 644.458095 208.476295 
L 644.903994 213.384706 
L 645.201261 214.551744 
L 645.349894 214.465592 
L 645.572844 213.49813 
L 645.87011 210.69833 
L 646.31601 203.627704 
L 646.984859 188.564799 
L 648.173925 161.732357 
L 648.619824 155.949055 
L 648.917091 154.175239 
L 649.065724 153.964141 
L 649.214357 154.211176 
L 649.437307 155.433186 
L 649.734573 158.586952 
L 650.180473 166.200014 
L 650.849322 182.126587 
L 652.187021 214.556873 
L 652.707237 222.32388 
L 653.07882 225.435678 
L 653.376087 226.507038 
L 653.52472 226.615917 
L 653.673353 226.473828 
L 653.896303 225.85867 
L 654.342203 223.638304 
L 655.159685 219.388919 
L 655.456952 218.859748 
L 655.605585 218.94478 
L 655.828535 219.578133 
L 656.125801 221.45036 
L 656.497384 225.506782 
L 657.0176 234.146058 
L 657.909399 253.783476 
L 658.726882 270.124664 
L 659.172782 275.400543 
L 659.470048 276.811451 
L 659.618681 276.809029 
L 659.767314 276.314911 
L 659.990264 274.638975 
L 660.287531 270.67731 
L 660.73343 261.291538 
L 661.40228 241.194334 
L 663.111561 186.22246 
L 663.631778 176.716525 
L 664.003361 173.179778 
L 664.22631 172.348174 
L 664.374944 172.300004 
L 664.523577 172.628813 
L 664.746527 173.761876 
L 665.11811 177.045879 
L 665.861276 186.340516 
L 666.530125 193.814416 
L 666.901708 196.195677 
L 667.124658 196.789951 
L 667.273291 196.809472 
L 667.421924 196.521898 
L 667.644874 195.520532 
L 668.016457 192.42769 
L 668.536673 185.710552 
L 670.023005 164.780419 
L 670.394588 162.517478 
L 670.617538 162.152086 
L 670.766171 162.348403 
L 670.989121 163.310162 
L 671.286387 165.805042 
L 671.732287 171.859601 
L 672.475453 185.936602 
L 673.441569 203.382399 
L 673.887469 207.839603 
L 674.110418 208.757897 
L 674.259052 208.83341 
L 674.407685 208.465061 
L 674.630635 207.071026 
L 674.927901 203.667587 
L 675.373801 195.532874 
L 676.04265 178.294338 
L 677.454665 140.742341 
L 677.900565 133.873909 
L 678.272148 131.148428 
L 678.420781 130.864777 
L 678.569414 131.040581 
L 678.792364 132.14216 
L 679.089631 135.073431 
L 679.53553 142.120953 
L 680.353013 159.875754 
L 681.319129 179.652715 
L 681.839345 186.210118 
L 682.210928 188.534328 
L 682.433878 188.992024 
L 682.582511 188.934947 
L 682.805461 188.361855 
L 683.177044 186.355857 
L 684.663376 176.678851 
L 684.812009 176.554101 
L 684.960642 176.710001 
L 685.183592 177.507902 
L 685.480858 179.674082 
L 685.852441 184.140349 
L 686.372657 193.242136 
L 688.230572 229.306508 
L 688.602155 231.849645 
L 688.750789 232.081709 
L 688.899422 231.838414 
L 689.122372 230.564304 
L 689.419638 227.17384 
L 689.865538 218.683623 
L 690.46007 202.256885 
L 692.392302 144.766445 
L 692.838202 138.295798 
L 693.135468 136.22086 
L 693.358418 135.830376 
L 693.507051 136.099276 
L 693.730001 137.239462 
L 694.101584 140.843483 
L 694.696117 149.641045 
L 695.885182 167.695898 
L 696.331082 171.327887 
L 696.628348 172.30163 
L 696.776981 172.344051 
L 696.925615 172.099727 
L 697.148564 171.228765 
L 697.520147 168.624851 
L 698.188997 161.797338 
L 698.932163 154.927354 
L 699.303746 153.333608 
L 699.452379 153.20837 
L 699.601012 153.411862 
L 699.823962 154.368478 
L 700.121228 156.901535 
L 700.492811 162.057714 
L 701.013028 172.511017 
L 703.168209 220.33491 
L 703.539792 222.898091 
L 703.688425 223.14781 
L 703.837058 222.949215 
L 704.060008 221.825206 
L 704.357275 218.86677 
L 704.803174 211.743715 
L 705.620657 193.75811 
L 706.512456 175.598223 
L 706.958356 170.336781 
L 707.255622 168.887688 
L 707.404255 168.835727 
L 707.552888 169.241484 
L 707.775838 170.703633 
L 708.147421 175.317362 
L 708.667637 185.70302 
L 709.559437 209.640519 
L 710.525552 234.052074 
L 711.120085 243.820141 
L 711.565985 247.737056 
L 711.863251 248.816393 
L 712.086201 248.940344 
L 712.309151 248.590636 
L 712.680734 247.295249 
L 713.498216 244.226245 
L 713.721166 244.023815 
L 713.869799 244.159894 
L 714.092749 244.838545 
L 714.390016 246.732639 
L 714.761599 250.800769 
L 715.281815 259.545417 
L 716.099297 278.205081 
L 717.065413 299.468637 
L 717.511313 305.549467 
L 717.808579 307.519525 
L 717.957212 307.8 
L 718.105846 307.589284 
L 718.328795 306.336467 
L 718.626062 302.928106 
L 719.071961 294.327587 
L 719.666494 277.633645 
L 721.598726 218.567286 
L 722.044625 211.529849 
L 722.416208 208.652249 
L 722.639158 208.199364 
L 722.787791 208.392829 
L 723.010741 209.360262 
L 723.382324 212.492663 
L 723.976857 219.98932 
L 724.868656 231.115301 
L 725.314556 234.194229 
L 725.537506 234.780896 
L 725.686139 234.789648 
L 725.834772 234.488869 
L 726.057722 233.467078 
L 726.429305 230.35291 
L 726.949521 223.671721 
L 728.361536 204.128388 
L 728.733119 201.792821 
L 728.956069 201.365883 
L 729.104703 201.516068 
L 729.327652 202.40401 
L 729.624919 204.798269 
L 730.070818 210.716167 
L 730.813984 224.666553 
L 731.7801 242.212227 
L 732.226 246.798763 
L 732.523266 247.90881 
L 732.671899 247.813284 
L 732.894849 246.827345 
L 733.192116 243.941312 
L 733.563699 237.942437 
L 734.158231 223.827763 
L 736.016146 174.783394 
L 736.462046 169.257171 
L 736.759312 167.821366 
L 736.907946 167.791534 
L 737.056579 168.211007 
L 737.279529 169.647968 
L 737.651112 173.99095 
L 738.171328 183.235201 
L 739.88061 216.495296 
L 740.326509 220.630104 
L 740.623776 221.781146 
L 740.772409 221.887846 
L 740.921042 221.701394 
L 741.143992 220.920143 
L 741.515575 218.522525 
L 743.076223 206.388894 
L 743.299173 206.096588 
L 743.447806 206.264314 
L 743.670756 207.093551 
L 743.968023 209.301849 
L 744.413922 214.866597 
L 745.082772 227.063046 
L 746.271837 249.507768 
L 746.717737 254.079976 
L 746.940687 254.999641 
L 747.08932 255.044757 
L 747.163636 254.89006 
L 747.163636 254.89006 
" clip-path="url(#p29242d436a)" style="fill: none; stroke: #1f77b4; stroke-width: 1.5; stroke-linecap: square"/>
   </g>
   <g id="line2d_24">
    <path d="M 138.436364 157.517081 
L 139.997012 161.00747 
L 140.888811 162.482373 
L 141.780611 163.534838 
L 144.233058 166.099822 
L 145.347807 167.84166 
L 146.536873 169.628967 
L 147.131406 170.153603 
L 147.577305 170.259913 
L 147.948888 170.115097 
L 148.320471 169.728051 
L 148.766371 168.944552 
L 149.360904 167.378484 
L 150.10407 164.725245 
L 152.556518 155.344862 
L 153.076734 154.312498 
L 153.448317 153.943298 
L 153.745583 153.885044 
L 154.04285 154.042589 
L 154.414433 154.541936 
L 154.860332 155.569669 
L 155.454865 157.605932 
L 156.198031 161.043915 
L 157.31278 167.450127 
L 159.988178 183.303199 
L 160.731344 186.393226 
L 161.325877 188.022548 
L 161.771776 188.643163 
L 162.069043 188.736767 
L 162.366309 188.557766 
L 162.663575 188.096255 
L 163.035158 187.114316 
L 163.555375 184.988105 
L 164.149907 181.544818 
L 164.96739 175.332876 
L 166.379405 162.407101 
L 167.791421 150.197285 
L 168.68322 144.366014 
L 169.352069 141.268609 
L 169.946602 139.465521 
L 170.392502 138.678464 
L 170.764085 138.370356 
L 171.135668 138.357216 
L 171.507251 138.617506 
L 171.95315 139.259541 
L 172.547683 140.611447 
L 173.290849 142.965499 
L 174.331282 147.131332 
L 176.486463 156.031371 
L 177.229629 158.152537 
L 177.824162 159.245777 
L 178.344378 159.74349 
L 178.790278 159.857756 
L 179.236177 159.737166 
L 179.905027 159.28221 
L 180.871142 158.639008 
L 181.317042 158.600839 
L 181.688625 158.790841 
L 182.060208 159.230449 
L 182.506108 160.1352 
L 183.026324 161.756049 
L 183.620857 164.37161 
L 184.364023 168.715727 
L 185.330138 175.808033 
L 187.03942 190.416696 
L 188.748702 204.356162 
L 189.714818 210.473029 
L 190.383667 213.450087 
L 190.903883 214.867769 
L 191.275466 215.336638 
L 191.572733 215.363083 
L 191.869999 215.068526 
L 192.241582 214.241167 
L 192.687482 212.577672 
L 193.282015 209.272137 
L 194.025181 203.609048 
L 195.065613 193.676232 
L 197.518061 169.625216 
L 198.484177 162.638812 
L 199.301659 158.279597 
L 200.044825 155.480979 
L 200.713675 153.79376 
L 201.308207 152.857354 
L 201.828424 152.404032 
L 202.34864 152.231837 
L 202.943173 152.298805 
L 203.834972 152.694809 
L 204.726771 153.04598 
L 205.246987 153.028679 
L 205.692887 152.788991 
L 206.138786 152.285201 
L 206.659003 151.312674 
L 207.253535 149.662869 
L 207.996701 146.845053 
L 209.11145 141.577064 
L 210.449149 135.44832 
L 211.117999 133.280044 
L 211.638215 132.253524 
L 212.009798 131.923547 
L 212.307064 131.9129 
L 212.604331 132.129079 
L 212.975914 132.712785 
L 213.421813 133.851397 
L 214.016346 136.040755 
L 214.833829 140.070555 
L 216.022894 147.275162 
L 218.401026 161.907601 
L 219.218508 165.565023 
L 219.813041 167.349442 
L 220.258941 168.091596 
L 220.556207 168.270446 
L 220.853473 168.181616 
L 221.15074 167.816839 
L 221.522323 166.967904 
L 221.968222 165.380676 
L 222.562755 162.361102 
L 223.380238 156.814041 
L 224.86657 144.6708 
L 226.055635 135.721768 
L 226.873118 131.112235 
L 227.541967 128.571216 
L 228.062184 127.402575 
L 228.433767 126.993412 
L 228.731033 126.911675 
L 229.028299 127.038616 
L 229.399882 127.475113 
L 229.845782 128.377821 
L 230.440315 130.160783 
L 231.183481 133.18938 
L 232.149597 138.158523 
L 235.716793 157.692568 
L 236.459959 160.120991 
L 237.128809 161.596782 
L 237.797658 162.547307 
L 239.581257 164.667756 
L 240.101473 165.835218 
L 240.696006 167.781978 
L 241.364855 170.890814 
L 242.108021 175.542548 
L 242.99982 182.647129 
L 244.263202 194.756851 
L 247.458816 226.249543 
L 248.350615 232.706142 
L 249.019465 236.187823 
L 249.539681 237.91657 
L 249.911264 238.570977 
L 250.20853 238.728601 
L 250.43148 238.629023 
L 250.728747 238.204548 
L 251.10033 237.210491 
L 251.546229 235.364148 
L 252.140762 231.894822 
L 252.958245 225.621847 
L 254.59321 210.705928 
L 255.856592 200.165668 
L 256.748391 194.387868 
L 257.565874 190.510821 
L 258.234723 188.303053 
L 258.829256 186.98775 
L 259.423789 186.197016 
L 259.944005 185.869156 
L 260.464221 185.82115 
L 261.058754 186.031588 
L 261.876237 186.601318 
L 262.990986 187.356824 
L 263.511202 187.457879 
L 263.957101 187.30944 
L 264.403001 186.884759 
L 264.848901 186.140955 
L 265.369117 184.838111 
L 266.037966 182.481569 
L 266.929765 178.35559 
L 269.23358 167.074712 
L 269.902429 165.073757 
L 270.348329 164.299397 
L 270.719912 164.021931 
L 271.017178 164.043159 
L 271.314445 164.276578 
L 271.686028 164.854198 
L 272.206244 166.152995 
L 272.875094 168.535519 
L 273.841209 172.983823 
L 276.813873 187.514396 
L 277.482723 189.563904 
L 278.002939 190.501351 
L 278.374522 190.750123 
L 278.671788 190.668695 
L 278.969055 190.321311 
L 279.340638 189.495661 
L 279.786537 187.914574 
L 280.38107 184.810106 
L 281.124236 179.451988 
L 282.090352 170.59653 
L 284.914383 143.470056 
L 285.731865 138.069926 
L 286.400715 134.909875 
L 286.995248 133.042554 
L 287.515464 132.090359 
L 287.887047 131.769238 
L 288.25863 131.723036 
L 288.630213 131.929598 
L 289.076112 132.479653 
L 289.670645 133.661447 
L 290.413811 135.720443 
L 291.602877 139.8228 
L 293.014892 144.563327 
L 293.758058 146.336161 
L 294.278274 147.109909 
L 294.724174 147.435567 
L 295.095757 147.47237 
L 295.541657 147.260888 
L 296.061873 146.730558 
L 298.068421 144.29708 
L 298.440004 144.257241 
L 298.811587 144.471877 
L 299.18317 144.975041 
L 299.62907 145.990711 
L 300.149286 147.761709 
L 300.818135 150.936612 
L 301.635618 156.011089 
L 302.824683 165.011051 
L 305.648714 187.002613 
L 306.540513 192.027474 
L 307.135046 194.338784 
L 307.580946 195.402104 
L 307.952529 195.797132 
L 308.175479 195.806206 
L 308.472745 195.542235 
L 308.844328 194.75882 
L 309.290228 193.150286 
L 309.810444 190.378606 
L 310.479293 185.528857 
L 311.371092 177.303362 
L 314.715339 144.513366 
L 315.607139 138.697483 
L 316.350305 135.146687 
L 317.019154 132.86869 
L 317.688003 131.346428 
L 318.282536 130.531926 
L 318.802752 130.165752 
L 319.322969 130.060816 
L 319.917501 130.175852 
L 321.92405 130.78755 
L 322.369949 130.584114 
L 322.815849 130.128721 
L 323.336065 129.225042 
L 323.930598 127.664618 
L 324.673764 124.963066 
L 325.788513 119.849229 
L 327.200528 113.562484 
L 327.869378 111.525134 
L 328.389594 110.612583 
L 328.761177 110.36971 
L 329.058443 110.43178 
L 329.35571 110.723109 
L 329.727293 111.403827 
L 330.247509 112.916967 
L 330.916358 115.714986 
L 331.808158 120.61216 
L 333.220173 129.893489 
L 335.078088 141.878979 
L 335.969887 146.245336 
L 336.56442 148.249911 
L 337.01032 149.160725 
L 337.381903 149.486081 
L 337.679169 149.445446 
L 337.976435 149.129535 
L 338.348018 148.344941 
L 338.793918 146.843945 
L 339.388451 143.964008 
L 340.205933 138.67594 
L 343.327231 116.767452 
L 343.99608 114.136133 
L 344.516296 112.896674 
L 344.887879 112.447277 
L 345.185146 112.343139 
L 345.482412 112.458193 
L 345.853995 112.896296 
L 346.299895 113.82665 
L 346.894427 115.691351 
L 347.637593 118.895061 
L 348.603709 124.220966 
L 350.090041 133.941822 
L 351.799323 144.783764 
L 352.765439 149.484366 
L 353.582921 152.351232 
L 354.326087 154.184826 
L 355.58947 156.538622 
L 356.332636 158.218977 
L 356.927168 160.101829 
L 357.596018 163.031904 
L 358.339184 167.460949 
L 359.156666 173.778309 
L 360.197099 183.681248 
L 361.906381 202.506392 
L 363.912929 224.043652 
L 364.953361 233.002049 
L 365.696527 237.768846 
L 366.29106 240.344432 
L 366.73696 241.463962 
L 367.034226 241.802401 
L 367.257176 241.838171 
L 367.480126 241.686844 
L 367.777392 241.197249 
L 368.148975 240.13638 
L 368.669191 237.870999 
L 369.338041 233.816008 
L 370.304156 226.414701 
L 372.459338 209.448846 
L 373.351137 204.29879 
L 374.094303 201.236968 
L 374.688836 199.578469 
L 375.209052 198.655917 
L 375.729268 198.172922 
L 376.175168 198.06645 
L 376.621067 198.206157 
L 377.141284 198.632178 
L 377.810133 199.5034 
L 379.073515 201.639719 
L 379.965314 202.968893 
L 380.559847 203.483422 
L 381.005747 203.571515 
L 381.37733 203.410397 
L 381.748913 203.015568 
L 382.194812 202.221638 
L 382.789345 200.635756 
L 383.532511 197.94007 
L 386.059276 188.003458 
L 386.579492 186.935275 
L 386.951075 186.541854 
L 387.248341 186.464296 
L 387.545608 186.602065 
L 387.917191 187.075323 
L 388.36309 188.068682 
L 388.957623 190.052095 
L 389.700789 193.410386 
L 390.815538 199.666307 
L 393.416619 214.666382 
L 394.159785 217.678281 
L 394.754318 219.256918 
L 395.200218 219.84556 
L 395.497484 219.920085 
L 395.79475 219.72322 
L 396.092017 219.244451 
L 396.4636 218.240714 
L 396.983816 216.08081 
L 397.578349 212.589277 
L 398.395831 206.282902 
L 399.73353 193.803191 
L 401.219862 180.473593 
L 402.111661 174.340247 
L 402.854827 170.705562 
L 403.44936 168.800558 
L 403.969576 167.833948 
L 404.341159 167.51695 
L 404.712742 167.488126 
L 405.084325 167.725691 
L 405.530225 168.33106 
L 406.050441 169.429898 
L 406.793607 171.612278 
L 407.83404 175.516949 
L 409.914904 183.55266 
L 410.65807 185.504982 
L 411.252603 186.465891 
L 411.698503 186.816545 
L 412.144402 186.869977 
L 412.590302 186.671445 
L 413.184835 186.135685 
L 414.448217 184.921909 
L 414.894117 184.805795 
L 415.2657 184.945008 
L 415.637283 185.343907 
L 416.083182 186.208728 
L 416.603398 187.787992 
L 417.197931 190.351653 
L 417.941097 194.607673 
L 418.907213 201.524207 
L 420.839445 217.476387 
L 422.325777 228.807523 
L 423.217576 234.024449 
L 423.886425 236.709516 
L 424.332325 237.775765 
L 424.703908 238.166942 
L 424.926858 238.171097 
L 425.224124 237.897704 
L 425.595707 237.098234 
L 426.041607 235.46484 
L 426.561823 232.657648 
L 427.230672 227.754255 
L 428.122471 219.447572 
L 431.541035 185.705528 
L 432.432834 179.885168 
L 433.250317 176.00309 
L 433.993483 173.549061 
L 434.662332 172.083228 
L 435.256865 171.270955 
L 435.851398 170.831146 
L 436.445931 170.670505 
L 437.33773 170.71158 
L 438.229529 170.688912 
L 438.749745 170.444368 
L 439.195645 170.004982 
L 439.715861 169.150955 
L 440.310394 167.657331 
L 440.979243 165.292766 
L 441.871042 161.172034 
L 444.32349 149.136984 
L 444.918023 147.401833 
L 445.363923 146.642979 
L 445.735506 146.393464 
L 446.032772 146.448857 
L 446.330039 146.728318 
L 446.701622 147.381886 
L 447.221838 148.824446 
L 447.890687 151.460562 
L 448.782486 155.999876 
L 450.566085 166.613713 
L 451.903784 173.881382 
L 452.64695 176.892042 
L 453.241482 178.476745 
L 453.687382 179.07615 
L 453.984648 179.162465 
L 454.281915 178.982582 
L 454.579181 178.527588 
L 454.950764 177.565936 
L 455.47098 175.495238 
L 456.13983 171.680207 
L 457.031629 164.988928 
L 460.004293 141.072106 
L 460.747459 137.338757 
L 461.341992 135.379905 
L 461.787891 134.513044 
L 462.159474 134.170882 
L 462.456741 134.134331 
L 462.754007 134.297793 
L 463.12559 134.766764 
L 463.645806 135.877448 
L 464.240339 137.723136 
L 465.057822 141.097213 
L 466.172571 146.804868 
L 468.550702 159.323785 
L 469.368185 162.385675 
L 470.037034 164.12353 
L 470.631567 165.113531 
L 471.2261 165.694604 
L 473.084015 167.093996 
L 473.604231 168.055813 
L 474.124447 169.519685 
L 474.71898 171.909402 
L 475.387829 175.56464 
L 476.205312 181.349749 
L 477.320061 191.078187 
L 481.333157 228.119129 
L 482.15064 232.957719 
L 482.745173 235.268145 
L 483.191072 236.226074 
L 483.488339 236.467926 
L 483.711288 236.434019 
L 484.008555 236.097787 
L 484.380138 235.210131 
L 484.826037 233.476233 
L 485.42057 230.110933 
L 486.163736 224.485358 
L 487.352802 213.468829 
L 489.210717 196.423303 
L 490.176833 189.607602 
L 490.994315 185.319128 
L 491.737481 182.549268 
L 492.406331 180.865798 
L 493.000863 179.915812 
L 493.52108 179.437221 
L 494.041296 179.227538 
L 494.635829 179.238483 
L 495.527628 179.532231 
L 496.419427 179.771842 
L 496.939643 179.687615 
L 497.385543 179.387601 
L 497.831442 178.817031 
L 498.351659 177.751128 
L 498.946191 175.960243 
L 499.689357 172.885752 
L 500.72979 167.410964 
L 502.513388 157.893719 
L 503.256554 155.156837 
L 503.776771 153.960535 
L 504.22267 153.455117 
L 504.519937 153.388648 
L 504.817203 153.534082 
L 505.188786 154.000739 
L 505.634686 154.946186 
L 506.229218 156.771819 
L 507.046701 160.081895 
L 508.60735 167.605344 
L 509.945048 173.572087 
L 510.688214 175.988361 
L 511.208431 177.063763 
L 511.580014 177.446382 
L 511.87728 177.490729 
L 512.174546 177.283044 
L 512.546129 176.646681 
L 512.992029 175.304078 
L 513.512245 172.922537 
L 514.181095 168.611374 
L 514.998577 161.687718 
L 516.261959 148.766531 
L 517.971241 131.595139 
L 518.937357 124.131571 
L 519.680523 119.960859 
L 520.349372 117.405445 
L 520.869589 116.160681 
L 521.315488 115.569602 
L 521.687071 115.384701 
L 522.058654 115.455941 
L 522.430237 115.760999 
L 522.950453 116.537939 
L 523.619303 118.041755 
L 524.511102 120.681559 
L 526.666283 127.35867 
L 527.335133 128.65714 
L 527.855349 129.214098 
L 528.301249 129.354085 
L 528.672832 129.240768 
L 529.118731 128.859815 
L 529.713264 128.036045 
L 531.348229 125.553543 
L 531.794129 125.290813 
L 532.165712 125.335014 
L 532.537295 125.65892 
L 532.908878 126.288894 
L 533.354777 127.468443 
L 533.94931 129.759431 
L 534.692476 133.68914 
L 535.658592 140.202736 
L 537.367874 153.645873 
L 538.928522 165.281355 
L 539.820322 170.480826 
L 540.489171 173.232576 
L 541.009387 174.510852 
L 541.38097 174.897015 
L 541.60392 174.902724 
L 541.901186 174.636036 
L 542.272769 173.851101 
L 542.718669 172.241507 
L 543.238885 169.466097 
L 543.907735 164.600767 
L 544.799534 156.322746 
L 548.292414 121.844159 
L 549.184213 116.12258 
L 549.927379 112.644084 
L 550.596229 110.41768 
L 551.265078 108.931757 
L 551.859611 108.136449 
L 552.379827 107.77663 
L 552.900043 107.667321 
L 553.568893 107.784909 
L 555.203858 108.217249 
L 555.649757 108.07284 
L 556.095657 107.700154 
L 556.615873 106.914109 
L 557.136089 105.706526 
L 557.804939 103.529397 
L 558.696738 99.720123 
L 560.85192 90.018927 
L 561.446452 88.355201 
L 561.892352 87.630471 
L 562.263935 87.405885 
L 562.561201 87.483699 
L 562.858468 87.79124 
L 563.230051 88.492221 
L 563.750267 90.032426 
L 564.419116 92.860878 
L 565.310916 97.788386 
L 566.722931 107.09282 
L 568.580846 119.063207 
L 569.472645 123.401172 
L 570.067178 125.37904 
L 570.513078 126.266554 
L 570.884661 126.571126 
L 571.181927 126.513518 
L 571.479193 126.180833 
L 571.850776 125.376358 
L 572.296676 123.854553 
L 572.891209 120.955224 
L 573.708691 115.663104 
L 576.755672 94.388995 
L 577.424521 91.736448 
L 577.944738 90.480409 
L 578.316321 90.020947 
L 578.613587 89.910458 
L 578.910853 90.021011 
L 579.282436 90.456418 
L 579.728336 91.388169 
L 580.322869 93.2629 
L 581.066035 96.492447 
L 582.032151 101.87498 
L 583.444166 111.230837 
L 585.302081 123.288274 
L 586.268197 128.083528 
L 587.085679 131.035328 
L 587.903162 133.122568 
L 589.984027 137.790628 
L 590.652876 140.28384 
L 591.321726 143.7012 
L 592.064892 148.701205 
L 592.956691 156.30694 
L 594.145756 168.567493 
L 598.084536 211.010432 
L 598.976335 217.584666 
L 599.645185 220.982849 
L 600.165401 222.566278 
L 600.536984 223.089274 
L 600.83425 223.134507 
L 601.131517 222.848951 
L 601.5031 222.037669 
L 601.948999 220.433597 
L 602.543532 217.345637 
L 603.361015 211.744259 
L 606.407995 189.326099 
L 607.151161 185.844352 
L 607.820011 183.676129 
L 608.414544 182.474328 
L 608.93476 181.92744 
L 609.380659 181.790558 
L 609.826559 181.9225 
L 610.346775 182.368436 
L 611.015625 183.314 
L 611.98174 185.15676 
L 613.468072 187.983098 
L 614.062605 188.672869 
L 614.508505 188.889461 
L 614.880088 188.83424 
L 615.251671 188.545017 
L 615.697571 187.878674 
L 616.217787 186.674141 
L 616.960953 184.275738 
L 619.562034 175.009433 
L 620.08225 174.164301 
L 620.453833 173.933618 
L 620.751099 173.987546 
L 621.048366 174.257418 
L 621.419949 174.895965 
L 621.940165 176.328101 
L 622.609014 178.995706 
L 623.426497 183.258292 
L 624.764196 191.611415 
L 626.696427 203.549242 
L 627.588227 207.70299 
L 628.182759 209.585824 
L 628.628659 210.411507 
L 629.000242 210.665184 
L 629.297508 210.563142 
L 629.594775 210.178802 
L 629.966358 209.293282 
L 630.412257 207.638387 
L 631.00679 204.474839 
L 631.749956 199.193312 
L 632.939022 188.797367 
L 634.648304 173.986619 
L 635.540103 168.158837 
L 636.208952 165.048495 
L 636.803485 163.234747 
L 637.249385 162.444374 
L 637.620968 162.137985 
L 637.992551 162.131239 
L 638.364134 162.402864 
L 638.810033 163.06515 
L 639.330249 164.252699 
L 639.999099 166.339854 
L 640.965215 170.193893 
L 643.789245 182.075078 
L 644.458095 183.795435 
L 645.052628 184.731473 
L 645.498527 185.076204 
L 645.944427 185.155296 
L 646.464643 184.996421 
L 648.025292 184.300697 
L 648.396875 184.421706 
L 648.768458 184.76474 
L 649.214357 185.526567 
L 649.734573 186.959627 
L 650.329106 189.358119 
L 651.072272 193.46737 
L 651.964071 199.790795 
L 653.30177 211.09312 
L 655.679901 231.302926 
L 656.646017 237.606632 
L 657.314867 240.718494 
L 657.835083 242.243796 
L 658.206666 242.790692 
L 658.503932 242.880019 
L 658.726882 242.736878 
L 659.024148 242.260832 
L 659.395731 241.205746 
L 659.915948 238.888501 
L 660.51048 235.126484 
L 661.327963 228.356574 
L 662.739978 214.279925 
L 664.300627 199.405129 
L 665.266743 192.23696 
L 666.084225 187.718168 
L 666.827391 184.797303 
L 667.496241 183.027518 
L 668.090774 182.041217 
L 668.61099 181.562572 
L 669.131206 181.382901 
L 669.651422 181.441609 
L 670.320272 181.756943 
L 671.806604 182.559196 
L 672.32682 182.547223 
L 672.77272 182.292857 
L 673.218619 181.760464 
L 673.738835 180.744165 
L 674.333368 179.043872 
L 675.076534 176.188633 
L 676.414233 169.916772 
L 677.454665 165.452464 
L 678.123515 163.446049 
L 678.643731 162.557897 
L 679.015314 162.330272 
L 679.31258 162.402115 
L 679.609847 162.700287 
L 679.98143 163.384456 
L 680.501646 164.890981 
L 681.170495 167.657737 
L 682.062295 172.469646 
L 683.548627 182.005356 
L 685.257908 192.598715 
L 686.075391 196.472753 
L 686.669924 198.444415 
L 687.115823 199.341344 
L 687.487406 199.659752 
L 687.784673 199.614803 
L 688.081939 199.294015 
L 688.453522 198.499864 
L 688.899422 196.977429 
L 689.493955 194.041189 
L 690.237121 189.148191 
L 691.500503 179.053128 
L 692.912518 168.241421 
L 693.730001 163.543945 
L 694.39885 160.912444 
L 694.919066 159.671739 
L 695.364966 159.16338 
L 695.662232 159.098358 
L 695.959499 159.242286 
L 696.331082 159.700466 
L 696.776981 160.629911 
L 697.371514 162.449782 
L 698.11468 165.526595 
L 699.080796 170.562375 
L 702.647993 190.401686 
L 703.391159 192.901568 
L 704.060008 194.439065 
L 704.728858 195.446197 
L 706.586773 197.825296 
L 707.106989 199.079655 
L 707.701522 201.13934 
L 708.370371 204.383515 
L 709.113537 209.182917 
L 710.005336 216.443657 
L 711.268718 228.712408 
L 714.315699 259.025389 
L 715.281815 266.175998 
L 715.950664 269.71793 
L 716.47088 271.496029 
L 716.842463 272.186589 
L 717.13973 272.3734 
L 717.36268 272.295723 
L 717.659946 271.90027 
L 718.031529 270.941835 
L 718.477429 269.136599 
L 719.071961 265.717883 
L 719.889444 259.503764 
L 721.450093 245.337657 
L 722.787791 234.142984 
L 723.679591 228.371481 
L 724.497073 224.498506 
L 725.165923 222.294775 
L 725.760455 220.984214 
L 726.354988 220.199466 
L 726.875204 219.877882 
L 727.395421 219.837159 
L 727.989953 220.057314 
L 728.807436 220.643468 
L 729.922185 221.428981 
L 730.442401 221.547473 
L 730.888301 221.415594 
L 731.334201 221.008644 
L 731.7801 220.28326 
L 732.300316 219.001928 
L 732.969166 216.671246 
L 733.860965 212.572412 
L 736.239096 201.029652 
L 736.833629 199.284034 
L 737.279529 198.498405 
L 737.651112 198.210884 
L 737.948378 198.232052 
L 738.245644 198.465646 
L 738.617227 199.036994 
L 739.137444 200.30881 
L 739.806293 202.614054 
L 740.772409 206.861732 
L 742.481691 215.607338 
L 744.265289 225.760796 
L 745.677304 235.105265 
L 747.163636 246.107737 
L 747.163636 246.107737 
" clip-path="url(#p29242d436a)" style="fill: none; stroke: #ff7f0e; stroke-width: 1.5; stroke-linecap: square"/>
   </g>
   <g id="patch_3">
    <path d="M 108 320.4 
L 108 43.2 
" style="fill: none; stroke: #000000; stroke-width: 0.8; stroke-linejoin: miter; stroke-linecap: square"/>
   </g>
   <g id="patch_4">
    <path d="M 777.6 320.4 
L 777.6 43.2 
" style="fill: none; stroke: #000000; stroke-width: 0.8; stroke-linejoin: miter; stroke-linecap: square"/>
   </g>
   <g id="patch_5">
    <path d="M 108 320.4 
L 777.6 320.4 
" style="fill: none; stroke: #000000; stroke-width: 0.8; stroke-linejoin: miter; stroke-linecap: square"/>
   </g>
   <g id="patch_6">
    <path d="M 108 43.2 
L 777.6 43.2 
" style="fill: none; stroke: #000000; stroke-width: 0.8; stroke-linejoin: miter; stroke-linecap: square"/>
   </g>
   <g id="legend_1">
    <g id="patch_7">
     <path d="M 689.475 80.55625 
L 770.6 80.55625 
Q 772.6 80.55625 772.6 78.55625 
L 772.6 50.2 
Q 772.6 48.2 770.6 48.2 
L 689.475 48.2 
Q 687.475 48.2 687.475 50.2 
L 687.475 78.55625 
Q 687.475 80.55625 689.475 80.55625 
z
" style="fill: #ffffff; opacity: 0.8; stroke: #cccccc; stroke-linejoin: miter"/>
    </g>
    <g id="line2d_25">
     <path d="M 691.475 56.298437 
L 701.475 56.298437 
L 711.475 56.298437 
" style="fill: none; stroke: #1f77b4; stroke-width: 1.5; stroke-linecap: square"/>
    </g>
    <g id="text_13">
     <!-- raw -->
     <g transform="translate(719.475 59.798437)scale(0.1 -0.1)">
      <defs>
       <path id="DejaVuSans-72" d="M 2631 2963 
Q 2534 3019 2420 3045 
Q 2306 3072 2169 3072 
Q 1681 3072 1420 2755 
Q 1159 2438 1159 1844 
L 1159 0 
L 581 0 
L 581 3500 
L 1159 3500 
L 1159 2956 
Q 1341 3275 1631 3429 
Q 1922 3584 2338 3584 
Q 2397 3584 2469 3576 
Q 2541 3569 2628 3553 
L 2631 2963 
z
" transform="scale(0.015625)"/>
       <path id="DejaVuSans-61" d="M 2194 1759 
Q 1497 1759 1228 1600 
Q 959 1441 959 1056 
Q 959 750 1161 570 
Q 1363 391 1709 391 
Q 2188 391 2477 730 
Q 2766 1069 2766 1631 
L 2766 1759 
L 2194 1759 
z
M 3341 1997 
L 3341 0 
L 2766 0 
L 2766 531 
Q 2569 213 2275 61 
Q 1981 -91 1556 -91 
Q 1019 -91 701 211 
Q 384 513 384 1019 
Q 384 1609 779 1909 
Q 1175 2209 1959 2209 
L 2766 2209 
L 2766 2266 
Q 2766 2663 2505 2880 
Q 2244 3097 1772 3097 
Q 1472 3097 1187 3025 
Q 903 2953 641 2809 
L 641 3341 
Q 956 3463 1253 3523 
Q 1550 3584 1831 3584 
Q 2591 3584 2966 3190 
Q 3341 2797 3341 1997 
z
" transform="scale(0.015625)"/>
       <path id="DejaVuSans-77" d="M 269 3500 
L 844 3500 
L 1563 769 
L 2278 3500 
L 2956 3500 
L 3675 769 
L 4391 3500 
L 4966 3500 
L 4050 0 
L 3372 0 
L 2619 2869 
L 1863 0 
L 1184 0 
L 269 3500 
z
" transform="scale(0.015625)"/>
      </defs>
      <use xlink:href="#DejaVuSans-72"/>
      <use xlink:href="#DejaVuSans-61" x="41.113281"/>
      <use xlink:href="#DejaVuSans-77" x="102.392578"/>
     </g>
    </g>
    <g id="line2d_26">
     <path d="M 691.475 70.976562 
L 701.475 70.976562 
L 711.475 70.976562 
" style="fill: none; stroke: #ff7f0e; stroke-width: 1.5; stroke-linecap: square"/>
    </g>
    <g id="text_14">
     <!-- fir filtered -->
     <g transform="translate(719.475 74.476562)scale(0.1 -0.1)">
      <defs>
       <path id="DejaVuSans-66" d="M 2375 4863 
L 2375 4384 
L 1825 4384 
Q 1516 4384 1395 4259 
Q 1275 4134 1275 3809 
L 1275 3500 
L 2222 3500 
L 2222 3053 
L 1275 3053 
L 1275 0 
L 697 0 
L 697 3053 
L 147 3053 
L 147 3500 
L 697 3500 
L 697 3744 
Q 697 4328 969 4595 
Q 1241 4863 1831 4863 
L 2375 4863 
z
" transform="scale(0.015625)"/>
       <path id="DejaVuSans-20" transform="scale(0.015625)"/>
       <path id="DejaVuSans-6c" d="M 603 4863 
L 1178 4863 
L 1178 0 
L 603 0 
L 603 4863 
z
" transform="scale(0.015625)"/>
       <path id="DejaVuSans-64" d="M 2906 2969 
L 2906 4863 
L 3481 4863 
L 3481 0 
L 2906 0 
L 2906 525 
Q 2725 213 2448 61 
Q 2172 -91 1784 -91 
Q 1150 -91 751 415 
Q 353 922 353 1747 
Q 353 2572 751 3078 
Q 1150 3584 1784 3584 
Q 2172 3584 2448 3432 
Q 2725 3281 2906 2969 
z
M 947 1747 
Q 947 1113 1208 752 
Q 1469 391 1925 391 
Q 2381 391 2643 752 
Q 2906 1113 2906 1747 
Q 2906 2381 2643 2742 
Q 2381 3103 1925 3103 
Q 1469 3103 1208 2742 
Q 947 2381 947 1747 
z
" transform="scale(0.015625)"/>
      </defs>
      <use xlink:href="#DejaVuSans-66"/>
      <use xlink:href="#DejaVuSans-69" x="35.205078"/>
      <use xlink:href="#DejaVuSans-72" x="62.988281"/>
      <use xlink:href="#DejaVuSans-20" x="104.101562"/>
      <use xlink:href="#DejaVuSans-66" x="135.888672"/>
      <use xlink:href="#DejaVuSans-69" x="171.09375"/>
      <use xlink:href="#DejaVuSans-6c" x="198.876953"/>
      <use xlink:href="#DejaVuSans-74" x="226.660156"/>
      <use xlink:href="#DejaVuSans-65" x="265.869141"/>
      <use xlink:href="#DejaVuSans-72" x="327.392578"/>
      <use xlink:href="#DejaVuSans-65" x="366.255859"/>
      <use xlink:href="#DejaVuSans-64" x="427.779297"/>
     </g>
    </g>
   </g>
  </g>
 </g>
 <defs>
  <clipPath id="p29242d436a">
   <rect x="108" y="43.2" width="669.6" height="277.2"/>
  </clipPath>
 </defs>
</svg>
